HIERARCHY
ROOT root
{
	OFFSET 0.000000 0.000000 0.000000
	CHANNELS 6 Xposition Yposition Zposition Zrotation Yrotation Xrotation
	JOINT lhip
	{
		OFFSET 0.058581 -0.082280 -0.017664
		CHANNELS 3 Zrotation Yrotation Xrotation
		JOINT lknee
		{
			OFFSET 0.043451 -0.386469 0.008037
			CHANNELS 3 Zrotation Yrotation Xrotation
			JOINT lankle
			{
				OFFSET -0.014790 -0.426874 -0.037428
				CHANNELS 3 Zrotation Yrotation Xrotation
				JOINT ltoe
				{
					OFFSET 0.041054 -0.060286 0.122042
					CHANNELS 3 Zrotation Yrotation Xrotation
					End Site
					{
						OFFSET 0.000000 0.000000 0.000000
					}
				}
			}
		}
	}
	JOINT rhip
	{
		OFFSET -0.060310 -0.090513 -0.013543
		CHANNELS 3 Zrotation Yrotation Xrotation
		JOINT rknee
		{
			OFFSET -0.043257 -0.383688 -0.004843
			CHANNELS 3 Zrotation Yrotation Xrotation
			JOINT rankle
			{
				OFFSET 0.019056 -0.420046 -0.034562
				CHANNELS 3 Zrotation Yrotation Xrotation
				JOINT rtoe
				{
					OFFSET -0.034840 -0.062106 0.130323
					CHANNELS 3 Zrotation Yrotation Xrotation
					End Site
					{
						OFFSET 0.000000 0.000000 0.000000
					}
				}
			}
		}
	}
	JOINT lowerback
	{
		OFFSET 0.004439 0.124404 -0.038385
		CHANNELS 3 Zrotation Yrotation Xrotation
		JOINT upperback
		{
			OFFSET 0.004488 0.137956 0.026820
			CHANNELS 3 Zrotation Yrotation Xrotation
			JOINT chest
			{
				OFFSET -0.002265 0.056032 0.002855
				CHANNELS 3 Zrotation Yrotation Xrotation
				JOINT lowerneck
				{
					OFFSET -0.013390 0.211636 -0.033468
					CHANNELS 3 Zrotation Yrotation Xrotation
					JOINT upperneck
					{
						OFFSET 0.010113 0.088937 0.050410
						CHANNELS 3 Zrotation Yrotation Xrotation
						End Site
						{
							OFFSET 0.000000 0.000000 0.000000
						}
					}
				}
				JOINT lclavicle
				{
					OFFSET 0.071702 0.114000 -0.018898
					CHANNELS 3 Zrotation Yrotation Xrotation
					JOINT lshoulder
					{
						OFFSET 0.122921 0.045205 -0.019046
						CHANNELS 3 Zrotation Yrotation Xrotation
						JOINT lelbow
						{
							OFFSET 0.255332 -0.015649 -0.022946
							CHANNELS 3 Zrotation Yrotation Xrotation
							JOINT lwrist
							{
								OFFSET 0.265709 0.012698 -0.007375
								CHANNELS 3 Zrotation Yrotation Xrotation
								End Site
								{
									OFFSET 0.000000 0.000000 0.000000
								}
							}
						}
					}
				}
				JOINT rclavicle
				{
					OFFSET -0.082954 0.112472 -0.023707
					CHANNELS 3 Zrotation Yrotation Xrotation
					JOINT rshoulder
					{
						OFFSET -0.113228 0.046853 -0.008472
						CHANNELS 3 Zrotation Yrotation Xrotation
						JOINT relbow
						{
							OFFSET -0.260127 -0.014369 -0.031269
							CHANNELS 3 Zrotation Yrotation Xrotation
							JOINT rwrist
							{
								OFFSET -0.269108 0.006794 -0.006027
								CHANNELS 3 Zrotation Yrotation Xrotation
								End Site
								{
									OFFSET 0.000000 0.000000 0.000000
								}
							}
						}
					}
				}
			}
		}
	}
}
MOTION
Frames: 17
Frame Time: 0.033333
-0.780307 1.295232 0.982577 82.424169 -0.690409 84.126778 -1.954499 -1.865734 15.449975 -3.600539 -19.277016 1.687170 4.267131 19.048581 -19.752555 0.000000 -0.000000 0.000000 -0.530936 -1.593452 13.618610 7.851488 16.726988 5.925670 0.863260 -10.124633 -17.813722 0.000000 -0.000000 0.000000 -2.511045 0.923469 -10.262676 2.268657 -5.617018 -2.009853 -2.016005 1.723300 -13.483214 -1.321831 -8.129592 -22.114480 7.035049 5.368482 9.572221 -6.728303 9.084475 -4.396535 11.661062 -9.460146 -14.067608 35.708943 -50.551779 -76.074829 11.154991 -26.537427 -57.533030 4.348465 -10.923949 -14.895125 -7.222074 0.980449 -22.268503 -39.978737 30.640196 -67.111916 -6.375035 17.745591 -27.324569 
-0.782143 1.295761 0.982583 82.491181 -0.438160 84.041631 -1.546246 -1.748347 15.647601 -3.581084 -19.750653 1.272166 3.700058 19.301312 -19.938582 0.000000 -0.000000 0.000000 -0.378751 -1.719223 13.419928 8.023302 17.111283 6.286875 0.971907 -10.387984 -17.567712 0.000000 -0.000000 0.000000 -2.283524 0.564610 -10.811031 1.748649 -5.679418 -1.393036 -2.026007 1.661729 -12.942396 -0.853196 -8.720338 -23.845789 6.811255 5.368283 8.395514 -8.214072 8.238605 -4.719445 9.524040 -9.724721 -11.806918 22.893499 -48.229748 -65.407062 12.046657 -28.272997 -56.195171 4.037074 -10.455796 -13.720910 -6.493246 1.368666 -20.491184 -24.672811 21.928869 -54.973651 -5.299908 17.564786 -21.975618 
-0.784824 1.296664 0.982502 82.297768 -0.190098 84.021847 -1.084387 -1.487008 15.595291 -3.747184 -19.801526 1.183933 3.479445 19.018993 -20.057515 0.000000 -0.000000 0.000000 -0.164882 -1.685711 13.051907 8.225528 17.628683 6.699618 0.764837 -10.612339 -17.483715 0.000000 -0.000000 0.000000 -2.053467 0.466523 -10.696877 1.212536 -5.524485 -0.493042 -2.443801 1.016060 -13.884545 0.141958 -8.753126 -24.745235 6.689045 4.965710 7.670465 -9.142729 8.339330 -5.384583 6.839432 -10.928214 -10.661925 14.176047 -43.659394 -59.135941 4.745279 -29.032828 -47.506310 4.285830 -9.920403 -12.522971 -5.053304 3.300390 -18.084268 -14.855105 10.002675 -49.008063 -1.210797 15.994485 -18.837552 
-0.788679 1.296941 0.982755 81.339603 0.114575 83.561369 -0.642017 -0.924840 15.914979 -3.889338 -19.982024 1.248054 3.537181 19.407164 -19.938735 0.000000 -0.000000 0.000000 0.111131 -1.618879 13.164262 8.405804 18.624712 6.814482 0.416936 -10.941879 -17.318028 0.000000 -0.000000 0.000000 -1.710235 0.493254 -9.886403 0.367712 -5.315237 0.308936 -2.672914 1.254182 -14.348497 0.974945 -8.585679 -26.429897 6.085776 4.130528 7.499240 -11.282373 6.803400 -6.729780 5.606779 -12.172439 -11.583918 5.280284 -33.839306 -54.622541 1.430274 -28.717092 -41.594499 5.046366 -8.487483 -11.998133 -2.242233 3.775261 -18.006418 -8.426426 -2.632417 -49.077851 0.290139 14.109193 -17.491099 
-0.791160 1.296182 0.983017 80.747747 0.414332 83.554070 -0.280922 -0.708047 15.790244 -3.901182 -19.947103 1.207048 3.573087 19.792539 -19.794868 0.000000 -0.000000 0.000000 0.467955 -1.530426 13.092829 8.453404 19.120791 6.571466 0.216980 -11.231921 -17.008411 0.000000 -0.000000 0.000000 -1.647467 0.662086 -9.256696 -0.016418 -5.230153 0.002345 -2.585965 1.317450 -14.099438 0.913074 -8.333415 -27.241870 6.242331 3.622520 7.210185 -12.465436 5.353886 -7.223152 6.121350 -12.008729 -13.160143 1.108342 -26.958805 -54.147660 -0.024258 -28.096474 -38.841961 5.835601 -7.747228 -12.280958 -0.534698 2.562801 -19.119950 -6.556760 -6.069746 -52.773667 0.673216 13.347275 -18.933725 
-0.793544 1.294429 0.983383 79.635291 0.879407 83.749048 0.264316 -0.102043 15.630683 -3.701758 -20.214600 0.673834 3.819550 20.535036 -19.125083 0.000000 -0.000000 0.000000 1.042195 -1.512546 12.574852 8.581622 20.119077 6.599821 0.073121 -11.484473 -17.004490 0.000000 -0.000000 0.000000 -1.783065 0.744129 -8.634166 -0.107743 -5.312300 -0.085208 -2.077221 1.584858 -14.270924 0.930731 -6.721042 -29.158371 6.333011 4.672761 9.581319 -13.661788 3.559359 -6.737785 7.803631 -10.278271 -16.141885 -2.808064 -18.166292 -54.763421 -1.961172 -26.976021 -34.541011 6.732255 -7.347255 -12.084416 0.001680 0.313045 -21.801609 -2.976402 -8.034590 -57.008411 2.775445 13.882027 -19.685569 
-0.795547 1.292502 0.984168 78.511452 1.374726 84.391754 0.659569 0.323116 15.296117 -2.930759 -19.655642 -0.499783 3.723866 20.555572 -18.348784 0.000000 -0.000000 0.000000 1.607583 -1.333779 11.714320 8.557068 20.742600 6.349245 0.112761 -11.204687 -16.227028 0.000000 -0.000000 0.000000 -1.790180 0.555168 -7.845355 0.089924 -5.532033 -1.009682 -1.666154 1.440865 -13.812264 0.618130 -5.772860 -29.514796 6.964582 4.465715 8.691131 -13.261509 3.110991 -7.178473 8.929531 -8.143162 -17.611882 -4.719197 -11.126594 -56.267013 -3.668252 -26.532055 -32.410643 7.352444 -7.324972 -12.643869 0.344092 -1.013639 -22.875950 -1.137614 -9.036814 -60.214545 4.109848 14.153773 -20.146077 
-0.798033 1.290905 0.986241 77.527791 1.894962 85.310195 1.187410 0.721709 14.684456 -2.384994 -19.093034 -1.655286 3.548654 20.541451 -17.302077 0.000000 -0.000000 0.000000 2.303993 -0.774479 10.213233 8.615181 21.065658 6.745192 0.152783 -10.882730 -15.269654 0.000000 -0.000000 0.000000 -1.726177 0.012555 -6.907577 0.312940 -5.559813 -2.175407 -1.401348 1.296332 -13.286392 0.744616 -5.250882 -29.158614 6.789698 3.849285 7.489675 -11.419669 4.304335 -7.920427 9.566772 -7.211953 -19.052257 -4.916311 -6.606365 -58.588411 -2.882663 -25.275238 -32.392775 6.505605 -8.625110 -13.105434 0.688757 -1.082538 -23.548013 -0.037194 -10.672209 -62.581246 3.452742 13.633662 -22.611486 
-0.799831 1.290395 0.989985 76.561290 2.305176 86.100145 1.408776 1.168150 14.348898 -1.475212 -18.789060 -3.101181 3.293906 20.591907 -15.815402 0.000000 -0.000000 0.000000 2.799466 -0.131526 8.632910 8.820280 21.557643 7.549484 0.631471 -10.542555 -13.797345 0.000000 -0.000000 0.000000 -1.363917 -0.671429 -5.951203 0.356617 -5.445068 -3.810656 -1.356625 1.152957 -12.047734 0.758062 -5.490991 -27.862468 7.181150 3.124009 5.275601 -8.379458 5.718871 -9.130096 9.935842 -6.699004 -20.216139 -4.164370 -2.808919 -59.774157 -0.848812 -23.599533 -32.892216 4.297404 -10.274947 -14.303719 0.481136 -1.239902 -23.766890 0.702951 -12.196433 -63.140895 2.985129 13.422795 -25.427013 
-0.803352 1.290587 0.999100 75.378022 2.728914 87.066180 1.756027 1.886516 13.284230 -0.968744 -17.938931 -3.964893 3.096243 20.434701 -12.178203 0.000000 -0.000000 0.000000 3.128851 0.639017 6.374615 9.227152 22.470390 8.785483 1.140604 -9.707434 -10.128877 0.000000 -0.000000 0.000000 -1.007418 -1.410170 -4.136485 0.541180 -5.398699 -5.928068 -0.982954 1.130695 -10.986632 0.496292 -5.840639 -26.272406 6.844931 2.540005 3.478186 -4.147785 6.686144 -9.907843 11.385551 -4.774612 -21.740487 -3.713060 0.955407 -59.241312 1.704070 -22.787959 -36.809081 0.307983 -12.628550 -15.290074 -1.538455 -2.186178 -25.408573 0.571448 -12.695897 -62.915806 0.682236 14.424546 -27.982968 
-0.807070 1.291774 1.012326 74.186104 2.782464 87.688836 1.848845 2.795463 11.911489 -1.046070 -16.131625 -3.722379 2.251450 19.137973 -7.666333 0.000000 -0.000000 0.000000 2.708963 1.080912 4.372572 9.577341 22.431413 9.734389 2.359496 -7.850477 -5.147652 0.000000 -0.000000 0.000000 -0.973088 -2.096614 -3.032938 0.796593 -5.292713 -6.803018 -0.830051 0.867115 -10.333696 0.639438 -5.125434 -24.460450 6.421389 1.559000 1.196723 -0.454628 8.306085 -10.631693 12.547849 -3.647409 -22.955984 -2.878930 3.281882 -60.856494 4.427432 -22.330785 -37.236589 -2.123968 -14.111816 -15.639487 -4.121817 -2.673539 -25.851938 -0.161152 -12.228949 -62.181422 -1.338856 15.311342 -28.054847 
-0.811435 1.293339 1.030818 72.730769 2.669557 88.539070 1.927188 3.323656 10.173477 -1.403374 -14.370372 -3.511613 1.398858 17.652900 -1.056852 0.000000 -0.000000 0.000000 1.925240 1.585927 2.286695 9.807973 21.989658 9.499100 3.745141 -5.981437 2.286181 0.000000 -0.000000 0.000000 -1.076682 -2.762263 -2.651788 1.138241 -5.263770 -7.301655 -0.659756 0.617492 -9.584969 0.531129 -4.743534 -23.136811 6.244376 0.546236 -1.169165 2.863425 9.907833 -11.058977 13.828130 -2.118880 -23.255004 -1.806472 4.549841 -61.240239 6.506430 -21.711488 -39.262550 -4.578988 -15.423770 -15.586114 -6.053627 -2.918779 -25.786574 -1.347831 -10.752959 -61.014461 -2.338603 14.878220 -29.406426 
-0.815783 1.295280 1.051623 71.001597 2.328822 89.266829 2.081013 3.789618 8.600338 -1.801770 -12.892898 -3.421773 -0.752287 15.274578 5.883384 0.000000 -0.000000 0.000000 0.851013 1.489190 0.938194 9.420100 20.858832 7.534047 5.858695 -4.018751 11.232277 0.000000 -0.000000 0.000000 -0.913167 -3.226821 -2.869732 1.335094 -5.294792 -7.021611 -0.903596 0.239868 -9.471324 -0.194163 -3.993737 -20.834843 6.359974 -0.517068 -2.903692 5.729408 11.269280 -10.939497 15.737843 -0.693442 -23.446268 -0.862603 5.412879 -62.430667 7.703919 -21.729247 -40.798226 -6.341339 -15.951858 -15.018670 -8.743448 -3.005663 -26.295226 -2.578586 -9.292058 -61.492624 -3.650822 15.229132 -29.617025 
-0.821326 1.297793 1.070496 68.966981 1.713084 89.961625 1.900075 3.251892 6.947046 -1.859073 -11.606008 -3.245896 -2.634041 13.023497 13.370919 0.000000 -0.000000 0.000000 -0.049085 1.124397 -0.493481 8.694320 19.091920 5.559875 7.325836 -3.146523 19.591589 0.000000 -0.000000 0.000000 -0.889146 -3.266830 -3.270562 1.259713 -5.146180 -6.521450 -1.215607 0.159747 -9.508042 -0.150377 -3.558805 -18.647783 5.687102 -2.117545 -4.222077 8.706141 11.994684 -10.882876 16.768322 -0.273634 -23.034907 0.543740 5.817769 -62.308425 7.805611 -21.736119 -42.295126 -8.944387 -16.371252 -14.914151 -9.851223 -3.002847 -25.756471 -4.925716 -7.626058 -61.489563 -4.028681 15.002400 -29.549191 
-0.827273 1.300739 1.083760 66.314770 1.058454 90.427680 1.414660 2.027773 6.058532 -1.770655 -12.725883 -3.518881 -3.799872 12.163236 17.740618 0.000000 -0.000000 0.000000 -0.619985 0.486328 -1.860918 8.212287 17.672991 4.696918 7.655800 -3.554677 25.201795 0.000000 -0.000000 0.000000 -0.659508 -3.092336 -4.216399 1.163124 -4.841897 -5.228949 -1.412538 0.344930 -9.427410 -1.023420 -3.408822 -16.594313 5.775012 -2.917210 -4.819719 10.805609 11.915577 -10.870421 18.386865 0.560472 -23.199682 1.141761 6.222002 -61.495152 7.549981 -21.853479 -42.113607 -11.173798 -15.907709 -14.104534 -11.733333 -3.126842 -26.285220 -6.973891 -6.304172 -60.463235 -4.327326 14.956440 -28.968280 
-0.834172 1.303701 1.088686 63.257295 0.386631 90.417237 0.757934 0.312364 5.600535 -1.681404 -15.658353 -3.017387 -3.286901 12.258719 18.573688 0.000000 -0.000000 0.000000 -0.326428 0.531192 -3.672191 7.970074 16.306549 7.995789 5.293299 -5.038244 22.807543 0.000000 -0.000000 0.000000 -0.515349 -2.796657 -4.308432 0.996659 -4.441004 -4.254069 -1.467272 0.294604 -9.390350 -1.569920 -3.142145 -14.833347 6.072834 -2.293437 -4.157544 12.892779 12.328682 -10.589871 19.520247 1.074802 -24.473242 1.362683 6.352823 -60.412090 6.012940 -22.286101 -39.339095 -13.233447 -15.393739 -13.790291 -13.402723 -1.799671 -27.431828 -8.251163 -6.065275 -58.995787 -2.570087 15.624748 -27.399520 
-0.839789 1.307145 1.084988 60.032407 -0.354827 89.337547 0.048385 -0.808853 6.443461 -2.339620 -18.256726 -1.363067 -2.751597 12.558279 16.943455 0.000000 -0.000000 0.000000 0.366375 0.185190 -4.357972 7.322280 13.992217 13.565129 2.483428 -8.433829 14.916293 0.000000 -0.000000 0.000000 -0.596712 -2.434673 -3.326991 0.617945 -4.013488 -3.542076 -1.326963 0.149154 -8.818533 -1.112665 -3.411809 -12.440544 6.330991 -2.359400 -3.650592 14.545701 12.961913 -11.867121 19.940725 0.379883 -24.916401 2.076171 6.820666 -58.038682 3.723553 -22.937747 -35.681417 -14.574762 -14.756066 -15.356595 -14.301933 0.086867 -26.568474 -8.950922 -5.872472 -56.054725 -0.479051 16.192382 -26.597971 
